<svg width="45" height="44" viewBox="0 0 45 44" fill="none" xmlns="http://www.w3.org/2000/svg">
<path d="M44.4792 22.1263C44.4792 10.1088 34.7258 0.355469 22.7083 0.355469C10.6908 0.355469 0.9375 10.1088 0.9375 22.1263C0.9375 34.1438 10.6908 43.8971 22.7083 43.8971C34.7258 43.8971 44.4792 34.1438 44.4792 22.1263ZM5.29167 22.1263C5.29167 12.5036 13.0856 4.70964 22.7083 4.70964C32.331 4.70964 40.125 12.5036 40.125 22.1263C40.125 31.749 32.331 39.543 22.7083 39.543C13.0856 39.543 5.29167 31.749 5.29167 22.1263ZM31.4167 22.1263L22.7083 30.8346L19.6386 27.7649L23.0784 24.3034H14V19.9492H23.0784L19.6169 16.4877L22.7083 13.418L31.4167 22.1263Z" fill="black"/>
</svg>
