<svg width="880" height="559" viewBox="0 0 880 559" fill="none" xmlns="http://www.w3.org/2000/svg">
<g clip-path="url(#clip0_1_1987)">
<rect width="880" height="558.773" rx="40.4908" fill="#00B8D4"/>
<circle cx="758.528" cy="437.299" r="218.65" fill="#40CADF"/>
<path d="M57.7622 99.9883V65.6325H70.3437C72.7817 65.6325 74.8004 66.0351 76.3996 66.8403C77.9988 67.6343 79.1955 68.7135 79.9895 70.0779C80.7835 71.4311 81.1806 72.9577 81.1806 74.6576C81.1806 76.0891 80.9178 77.2969 80.3921 78.281C79.8665 79.254 79.1619 80.0368 78.2784 80.6296C77.4061 81.2111 76.4443 81.6361 75.3931 81.9045V82.24C76.5338 82.2959 77.6466 82.665 78.7314 83.3472C79.8274 84.0182 80.7332 84.9744 81.449 86.2158C82.1647 87.4571 82.5226 88.9669 82.5226 90.7451C82.5226 92.5009 82.1088 94.0778 81.2812 95.4757C80.4648 96.8625 79.2011 97.9641 77.49 98.7805C75.7789 99.5857 73.5925 99.9883 70.9309 99.9883H57.7622ZM62.9458 95.5428H70.4276C72.9103 95.5428 74.6885 95.0619 75.7621 94.1001C76.8358 93.1384 77.3726 91.9361 77.3726 90.4935C77.3726 89.4087 77.0986 88.4133 76.5506 87.5075C76.0026 86.6016 75.2197 85.8802 74.202 85.3434C73.1955 84.8066 71.9989 84.5382 70.6121 84.5382H62.9458V95.5428ZM62.9458 80.4954H69.8908C71.0539 80.4954 72.0995 80.2717 73.0278 79.8244C73.9672 79.377 74.7109 78.7507 75.2589 77.9455C75.8181 77.1291 76.0976 76.1673 76.0976 75.0602C76.0976 73.6399 75.6 72.4488 74.6046 71.487C73.6093 70.5253 72.0828 70.0444 70.025 70.0444H62.9458V80.4954ZM95.7667 100.559C94.1339 100.559 92.6577 100.257 91.338 99.6528C90.0184 99.0377 88.9727 98.1486 88.201 96.9855C87.4405 95.8224 87.0603 94.3965 87.0603 92.7078C87.0603 91.2539 87.3399 90.0573 87.8991 89.1179C88.4583 88.1785 89.2131 87.4348 90.1637 86.8868C91.1143 86.3388 92.1768 85.925 93.351 85.6454C94.5253 85.3658 95.722 85.1533 96.941 85.0079C98.4843 84.829 99.7368 84.6836 100.699 84.5718C101.66 84.4488 102.359 84.253 102.796 83.9846C103.232 83.7162 103.45 83.2801 103.45 82.6762V82.5587C103.45 81.0937 103.036 79.9586 102.208 79.1534C101.392 78.3481 100.173 77.9455 98.5514 77.9455C96.8627 77.9455 95.5318 78.3202 94.5589 79.0695C93.5971 79.8076 92.9317 80.6296 92.5626 81.5354L87.8487 80.4618C88.4079 78.8961 89.2243 77.6324 90.2979 76.6706C91.3827 75.6976 92.6297 74.9931 94.0388 74.5569C95.448 74.1096 96.9298 73.8859 98.4843 73.8859C99.5132 73.8859 100.604 74.0089 101.755 74.255C102.919 74.4898 104.003 74.926 105.01 75.5634C106.028 76.2009 106.861 77.1124 107.509 78.2978C108.158 79.4721 108.482 80.9986 108.482 82.8775V99.9883H103.584V96.4655H103.383C103.058 97.1141 102.572 97.7516 101.923 98.3779C101.275 99.0041 100.441 99.5242 99.4237 99.938C98.406 100.352 97.187 100.559 95.7667 100.559ZM96.8571 96.5326C98.2438 96.5326 99.4293 96.2586 100.413 95.7106C101.409 95.1626 102.164 94.4468 102.678 93.5633C103.204 92.6687 103.467 91.7125 103.467 90.6948V87.3733C103.288 87.5522 102.941 87.7199 102.426 87.8765C101.923 88.0219 101.347 88.1505 100.699 88.2623C100.05 88.363 99.4181 88.4581 98.803 88.5475C98.1879 88.6258 97.6735 88.6929 97.2597 88.7488C96.2867 88.8718 95.3976 89.0787 94.5924 89.3695C93.7984 89.6603 93.1609 90.0797 92.68 90.6277C92.2103 91.1645 91.9755 91.8802 91.9755 92.7749C91.9755 94.0163 92.434 94.9557 93.351 95.5932C94.2681 96.2194 95.4368 96.5326 96.8571 96.5326ZM120.179 65.6325V99.9883H115.163V65.6325H120.179ZM134.425 100.559C132.793 100.559 131.316 100.257 129.997 99.6528C128.677 99.0377 127.631 98.1486 126.86 96.9855C126.099 95.8224 125.719 94.3965 125.719 92.7078C125.719 91.2539 125.999 90.0573 126.558 89.1179C127.117 88.1785 127.872 87.4348 128.822 86.8868C129.773 86.3388 130.835 85.925 132.01 85.6454C133.184 85.3658 134.381 85.1533 135.6 85.0079C137.143 84.829 138.396 84.6836 139.357 84.5718C140.319 84.4488 141.018 84.253 141.454 83.9846C141.89 83.7162 142.108 83.2801 142.108 82.6762V82.5587C142.108 81.0937 141.695 79.9586 140.867 79.1534C140.051 78.3481 138.832 77.9455 137.21 77.9455C135.521 77.9455 134.191 78.3202 133.218 79.0695C132.256 79.8076 131.59 80.6296 131.221 81.5354L126.507 80.4618C127.067 78.8961 127.883 77.6324 128.957 76.6706C130.041 75.6976 131.288 74.9931 132.698 74.5569C134.107 74.1096 135.588 73.8859 137.143 73.8859C138.172 73.8859 139.262 74.0089 140.414 74.255C141.577 74.4898 142.662 74.926 143.669 75.5634C144.686 76.2009 145.519 77.1124 146.168 78.2978C146.817 79.4721 147.141 80.9986 147.141 82.8775V99.9883H142.243V96.4655H142.041C141.717 97.1141 141.231 97.7516 140.582 98.3779C139.933 99.0041 139.1 99.5242 138.082 99.938C137.065 100.352 135.846 100.559 134.425 100.559ZM135.516 96.5326C136.903 96.5326 138.088 96.2586 139.072 95.7106C140.067 95.1626 140.822 94.4468 141.337 93.5633C141.862 92.6687 142.125 91.7125 142.125 90.6948V87.3733C141.946 87.5522 141.6 87.7199 141.085 87.8765C140.582 88.0219 140.006 88.1505 139.357 88.2623C138.709 88.363 138.077 88.4581 137.462 88.5475C136.847 88.6258 136.332 88.6929 135.918 88.7488C134.945 88.8718 134.056 89.0787 133.251 89.3695C132.457 89.6603 131.82 90.0797 131.339 90.6277C130.869 91.1645 130.634 91.8802 130.634 92.7749C130.634 94.0163 131.093 94.9557 132.01 95.5932C132.927 96.2194 134.095 96.5326 135.516 96.5326ZM158.838 84.6892V99.9883H153.822V74.2214H158.636V78.4152H158.955C159.548 77.0508 160.476 75.9549 161.74 75.1273C163.015 74.2997 164.62 73.8859 166.554 73.8859C168.31 73.8859 169.848 74.255 171.167 74.9931C172.487 75.72 173.51 76.8048 174.237 78.2475C174.964 79.6902 175.328 81.4739 175.328 83.5988V99.9883H170.312V84.2027C170.312 82.3351 169.825 80.8756 168.853 79.8244C167.88 78.7619 166.543 78.2307 164.843 78.2307C163.68 78.2307 162.646 78.4823 161.74 78.9856C160.845 79.4889 160.135 80.227 159.609 81.1999C159.095 82.1617 158.838 83.3248 158.838 84.6892ZM192.908 100.508C190.414 100.508 188.267 99.9435 186.467 98.814C184.677 97.6733 183.302 96.102 182.34 94.1001C181.378 92.0983 180.897 89.8057 180.897 87.2223C180.897 84.6053 181.389 82.2959 182.373 80.2941C183.358 78.281 184.744 76.7097 186.534 75.5802C188.323 74.4507 190.431 73.8859 192.858 73.8859C194.815 73.8859 196.56 74.2494 198.092 74.9763C199.624 75.692 200.86 76.6986 201.799 77.9959C202.75 79.2931 203.315 80.8085 203.494 82.542H198.612C198.343 81.3341 197.728 80.2941 196.767 79.4218C195.816 78.5494 194.541 78.1133 192.942 78.1133C191.544 78.1133 190.319 78.4823 189.268 79.2205C188.228 79.9474 187.417 80.9875 186.836 82.3407C186.254 83.6827 185.963 85.2707 185.963 87.1048C185.963 88.9837 186.249 90.6053 186.819 91.9697C187.389 93.3341 188.194 94.3909 189.235 95.1402C190.286 95.8895 191.522 96.2642 192.942 96.2642C193.892 96.2642 194.754 96.0908 195.525 95.7441C196.308 95.3863 196.962 94.8774 197.488 94.2176C198.025 93.5577 198.399 92.7637 198.612 91.8355H203.494C203.315 93.5018 202.772 94.9892 201.866 96.2977C200.96 97.6062 199.747 98.6351 198.226 99.3844C196.716 100.134 194.944 100.508 192.908 100.508ZM219.963 100.508C217.424 100.508 215.238 99.9659 213.404 98.8811C211.581 97.7851 210.171 96.2474 209.176 94.2679C208.192 92.2772 207.7 89.9455 207.7 87.2726C207.7 84.6333 208.192 82.3071 209.176 80.2941C210.171 78.281 211.558 76.7097 213.336 75.5802C215.126 74.4507 217.217 73.8859 219.61 73.8859C221.064 73.8859 222.473 74.1264 223.838 74.6072C225.202 75.0881 226.427 75.843 227.512 76.8719C228.596 77.9008 229.452 79.2372 230.078 80.8812C230.704 82.514 231.018 84.4991 231.018 86.8364V88.6146H210.535V84.857H226.102C226.102 83.5373 225.834 82.3686 225.297 81.3509C224.76 80.322 224.006 79.5112 223.033 78.9185C222.071 78.3258 220.941 78.0294 219.644 78.0294C218.235 78.0294 217.005 78.3761 215.953 79.0695C214.913 79.7517 214.108 80.6464 213.538 81.7535C212.979 82.8495 212.699 84.0406 212.699 85.3267V88.2623C212.699 89.9846 213.001 91.4497 213.605 92.6575C214.22 93.8653 215.075 94.7879 216.171 95.4254C217.267 96.0517 218.548 96.3648 220.013 96.3648C220.964 96.3648 221.83 96.2306 222.613 95.9622C223.396 95.6826 224.073 95.2688 224.643 94.7208C225.213 94.1728 225.649 93.4962 225.951 92.691L230.699 93.5466C230.319 94.9445 229.636 96.1691 228.652 97.2204C227.679 98.2604 226.455 99.0712 224.978 99.6528C223.513 100.223 221.842 100.508 219.963 100.508Z" fill="#40CADF"/>
<path d="M74.1661 252.994V191.645H78.0963V252.994H74.1661ZM85.5014 211.272C85.2777 209.179 84.3351 207.549 82.6736 206.383C81.028 205.217 78.8871 204.634 76.251 204.634C74.3978 204.634 72.8081 204.913 71.482 205.472C70.156 206.031 69.1415 206.79 68.4385 207.749C67.7356 208.708 67.3761 209.802 67.3601 211.032C67.3601 212.055 67.5918 212.941 68.0551 213.692C68.5344 214.443 69.1814 215.082 69.9962 215.609C70.811 216.121 71.7137 216.552 72.7042 216.903C73.6948 217.255 74.6933 217.551 75.6998 217.79L80.3011 218.94C82.1543 219.372 83.9357 219.955 85.6452 220.69C87.3707 221.425 88.9124 222.351 90.2704 223.47C91.6444 224.588 92.7308 225.938 93.5296 227.52C94.3284 229.102 94.7278 230.955 94.7278 233.08C94.7278 235.955 93.9929 238.488 92.5231 240.676C91.0532 242.849 88.9284 244.551 86.1485 245.781C83.3845 246.995 80.0374 247.602 76.1072 247.602C72.2889 247.602 68.9737 247.011 66.1619 245.829C63.366 244.647 61.1772 242.921 59.5955 240.653C58.0298 238.384 57.1831 235.62 57.0553 232.361H65.8024C65.9302 234.07 66.4574 235.492 67.3841 236.626C68.3107 237.761 69.5169 238.608 71.0027 239.167C72.5045 239.726 74.1821 240.005 76.0353 240.005C77.9685 240.005 79.662 239.718 81.1159 239.143C82.5857 238.552 83.736 237.737 84.5668 236.698C85.3976 235.644 85.8209 234.414 85.8369 233.008C85.8209 231.73 85.4455 230.675 84.7106 229.844C83.9757 228.998 82.9452 228.295 81.6191 227.736C80.309 227.16 78.7753 226.649 77.0179 226.202L71.4341 224.764C67.3921 223.725 64.1968 222.152 61.8482 220.043C59.5157 217.918 58.3494 215.098 58.3494 211.583C58.3494 208.692 59.1322 206.159 60.6979 203.986C62.2796 201.814 64.4284 200.128 67.1444 198.93C69.8604 197.716 72.9359 197.109 76.3708 197.109C79.8537 197.109 82.9052 197.716 85.5254 198.93C88.1615 200.128 90.2304 201.798 91.7322 203.939C93.234 206.063 94.0089 208.508 94.0568 211.272H85.5014ZM136.528 247.53C133.077 247.53 130.01 246.939 127.326 245.757C124.658 244.575 122.549 242.929 120.999 240.82C119.449 238.711 118.627 236.275 118.531 233.511H127.542C127.621 234.837 128.061 235.995 128.86 236.986C129.658 237.96 130.721 238.719 132.047 239.263C133.373 239.806 134.859 240.077 136.504 240.077C138.262 240.077 139.819 239.774 141.177 239.167C142.535 238.544 143.598 237.681 144.365 236.579C145.132 235.476 145.507 234.206 145.491 232.768C145.507 231.282 145.124 229.972 144.341 228.838C143.558 227.704 142.424 226.817 140.938 226.178C139.468 225.539 137.695 225.219 135.618 225.219H131.28V218.365H135.618C137.327 218.365 138.821 218.07 140.099 217.479C141.393 216.887 142.408 216.057 143.143 214.986C143.877 213.9 144.237 212.646 144.221 211.224C144.237 209.834 143.925 208.628 143.286 207.605C142.663 206.567 141.777 205.76 140.626 205.185C139.492 204.61 138.158 204.322 136.624 204.322C135.122 204.322 133.732 204.594 132.454 205.137C131.176 205.68 130.146 206.455 129.363 207.461C128.58 208.452 128.165 209.634 128.117 211.008H119.561C119.625 208.26 120.416 205.848 121.934 203.771C123.468 201.678 125.513 200.048 128.069 198.882C130.625 197.7 133.493 197.109 136.672 197.109C139.947 197.109 142.791 197.724 145.204 198.954C147.632 200.168 149.509 201.806 150.835 203.867C152.161 205.928 152.824 208.204 152.824 210.697C152.84 213.461 152.025 215.777 150.38 217.646C148.75 219.516 146.609 220.738 143.957 221.313V221.696C147.408 222.176 150.052 223.454 151.89 225.531C153.743 227.592 154.662 230.156 154.646 233.223C154.646 235.971 153.863 238.432 152.297 240.605C150.747 242.761 148.607 244.455 145.875 245.685C143.159 246.915 140.043 247.53 136.528 247.53ZM171.703 240.149L171.391 242.785C171.167 244.798 170.768 246.843 170.193 248.92C169.634 251.013 169.042 252.938 168.419 254.696C167.796 256.453 167.293 257.835 166.91 258.842H161.062C161.286 257.867 161.589 256.541 161.973 254.864C162.372 253.186 162.756 251.301 163.123 249.208C163.491 247.115 163.738 244.99 163.866 242.833L164.034 240.149H171.703ZM180.438 237.753V230.683L201.263 197.78H207.158V207.845H203.564L189.544 230.06V230.444H218.613V237.753H180.438ZM203.851 246.859V235.596L203.947 232.433V197.78H212.335V246.859H203.851ZM244.411 247.794C240.465 247.794 237.078 246.795 234.25 244.798C231.439 242.785 229.274 239.886 227.756 236.099C226.254 232.297 225.503 227.72 225.503 222.367C225.519 217.015 226.278 212.462 227.78 208.708C229.298 204.937 231.463 202.061 234.274 200.08C237.102 198.099 240.481 197.109 244.411 197.109C248.342 197.109 251.721 198.099 254.549 200.08C257.376 202.061 259.541 204.937 261.043 208.708C262.561 212.478 263.32 217.031 263.32 222.367C263.32 227.736 262.561 232.321 261.043 236.123C259.541 239.91 257.376 242.801 254.549 244.798C251.737 246.795 248.358 247.794 244.411 247.794ZM244.411 240.293C247.479 240.293 249.899 238.783 251.673 235.764C253.462 232.728 254.357 228.263 254.357 222.367C254.357 218.469 253.949 215.194 253.135 212.542C252.32 209.89 251.17 207.893 249.684 206.551C248.198 205.193 246.441 204.514 244.411 204.514C241.36 204.514 238.948 206.031 237.174 209.067C235.401 212.087 234.506 216.52 234.49 222.367C234.474 226.282 234.866 229.573 235.664 232.241C236.479 234.909 237.629 236.922 239.115 238.28C240.601 239.622 242.367 240.293 244.411 240.293ZM288.896 247.53C285.445 247.53 282.378 246.939 279.694 245.757C277.025 244.575 274.917 242.929 273.367 240.82C271.817 238.711 270.994 236.275 270.899 233.511H279.909C279.989 234.837 280.428 235.995 281.227 236.986C282.026 237.96 283.089 238.719 284.415 239.263C285.741 239.806 287.226 240.077 288.872 240.077C290.629 240.077 292.187 239.774 293.545 239.167C294.903 238.544 295.966 237.681 296.732 236.579C297.499 235.476 297.875 234.206 297.859 232.768C297.875 231.282 297.491 229.972 296.709 228.838C295.926 227.704 294.791 226.817 293.306 226.178C291.836 225.539 290.062 225.219 287.985 225.219H283.648V218.365H287.985C289.695 218.365 291.189 218.07 292.467 217.479C293.761 216.887 294.775 216.057 295.51 214.986C296.245 213.9 296.605 212.646 296.589 211.224C296.605 209.834 296.293 208.628 295.654 207.605C295.031 206.567 294.144 205.76 292.994 205.185C291.86 204.61 290.526 204.322 288.992 204.322C287.49 204.322 286.1 204.594 284.822 205.137C283.544 205.68 282.513 206.455 281.731 207.461C280.948 208.452 280.532 209.634 280.484 211.008H271.929C271.993 208.26 272.784 205.848 274.301 203.771C275.835 201.678 277.88 200.048 280.436 198.882C282.993 197.7 285.86 197.109 289.04 197.109C292.315 197.109 295.159 197.724 297.571 198.954C300 200.168 301.877 201.806 303.203 203.867C304.529 205.928 305.192 208.204 305.192 210.697C305.208 213.461 304.393 215.777 302.748 217.646C301.118 219.516 298.977 220.738 296.325 221.313V221.696C299.776 222.176 302.42 223.454 304.257 225.531C306.111 227.592 307.029 230.156 307.013 233.223C307.013 235.971 306.231 238.432 304.665 240.605C303.115 242.761 300.974 244.455 298.242 245.685C295.526 246.915 292.411 247.53 288.896 247.53ZM319.229 247.387C317.776 247.387 316.529 246.875 315.491 245.853C314.452 244.83 313.941 243.584 313.957 242.114C313.941 240.676 314.452 239.446 315.491 238.424C316.529 237.401 317.776 236.89 319.229 236.89C320.635 236.89 321.857 237.401 322.896 238.424C323.95 239.446 324.486 240.676 324.502 242.114C324.486 243.089 324.23 243.976 323.735 244.774C323.255 245.573 322.616 246.212 321.818 246.692C321.035 247.155 320.172 247.387 319.229 247.387ZM349.593 247.794C345.646 247.794 342.259 246.795 339.432 244.798C336.62 242.785 334.455 239.886 332.937 236.099C331.435 232.297 330.685 227.72 330.685 222.367C330.7 217.015 331.459 212.462 332.961 208.708C334.479 204.937 336.644 202.061 339.456 200.08C342.283 198.099 345.662 197.109 349.593 197.109C353.523 197.109 356.902 198.099 359.73 200.08C362.558 202.061 364.722 204.937 366.224 208.708C367.742 212.478 368.501 217.031 368.501 222.367C368.501 227.736 367.742 232.321 366.224 236.123C364.722 239.91 362.558 242.801 359.73 244.798C356.918 246.795 353.539 247.794 349.593 247.794ZM349.593 240.293C352.66 240.293 355.081 238.783 356.854 235.764C358.643 232.728 359.538 228.263 359.538 222.367C359.538 218.469 359.131 215.194 358.316 212.542C357.501 209.89 356.351 207.893 354.865 206.551C353.379 205.193 351.622 204.514 349.593 204.514C346.541 204.514 344.129 206.031 342.355 209.067C340.582 212.087 339.687 216.52 339.671 222.367C339.655 226.282 340.047 229.573 340.846 232.241C341.66 234.909 342.811 236.922 344.296 238.28C345.782 239.622 347.548 240.293 349.593 240.293ZM393.502 197.109C395.851 197.125 398.135 197.54 400.356 198.355C402.593 199.154 404.606 200.464 406.395 202.285C408.184 204.09 409.606 206.511 410.661 209.546C411.715 212.582 412.242 216.336 412.242 220.81C412.258 225.028 411.811 228.798 410.9 232.121C410.006 235.428 408.72 238.224 407.042 240.509C405.365 242.793 403.344 244.535 400.979 245.733C398.615 246.931 395.954 247.53 392.999 247.53C389.899 247.53 387.151 246.923 384.755 245.709C382.374 244.495 380.449 242.833 378.979 240.724C377.51 238.616 376.607 236.203 376.271 233.487H385.019C385.466 235.436 386.377 236.986 387.75 238.136C389.14 239.271 390.89 239.838 392.999 239.838C396.402 239.838 399.022 238.36 400.859 235.404C402.696 232.449 403.615 228.343 403.615 223.086H403.28C402.497 224.492 401.482 225.707 400.236 226.729C398.99 227.736 397.576 228.51 395.994 229.054C394.429 229.597 392.767 229.868 391.01 229.868C388.134 229.868 385.546 229.181 383.245 227.807C380.96 226.433 379.147 224.548 377.805 222.152C376.479 219.755 375.808 217.015 375.792 213.932C375.792 210.737 376.527 207.869 377.997 205.329C379.483 202.772 381.552 200.759 384.204 199.289C386.856 197.804 389.955 197.077 393.502 197.109ZM393.526 204.298C391.801 204.298 390.243 204.721 388.853 205.568C387.479 206.399 386.392 207.533 385.594 208.971C384.811 210.393 384.419 211.983 384.419 213.74C384.435 215.482 384.827 217.063 385.594 218.485C386.377 219.907 387.439 221.033 388.781 221.864C390.139 222.695 391.689 223.11 393.43 223.11C394.724 223.11 395.93 222.863 397.049 222.367C398.167 221.872 399.142 221.185 399.973 220.306C400.819 219.412 401.474 218.397 401.938 217.263C402.417 216.129 402.649 214.93 402.633 213.668C402.633 211.991 402.233 210.441 401.434 209.019C400.652 207.597 399.573 206.455 398.199 205.592C396.841 204.729 395.283 204.298 393.526 204.298Z" fill="white"/>
<path d="M68.794 316.669V279.859H71.1521V316.669H68.794ZM75.5952 291.636C75.461 290.38 74.8954 289.402 73.8985 288.702C72.9111 288.003 71.6266 287.653 70.0449 287.653C68.933 287.653 67.9792 287.821 67.1836 288.156C66.3879 288.492 65.7792 288.947 65.3574 289.522C64.9357 290.097 64.72 290.754 64.7104 291.492C64.7104 292.105 64.8494 292.637 65.1274 293.088C65.415 293.539 65.8032 293.922 66.2921 294.238C66.781 294.545 67.3226 294.804 67.9169 295.015C68.5112 295.226 69.1103 295.403 69.7142 295.547L72.475 296.237C73.5869 296.496 74.6558 296.846 75.6815 297.287C76.7167 297.728 77.6418 298.284 78.4566 298.955C79.281 299.626 79.9328 300.436 80.4121 301.385C80.8914 302.334 81.131 303.446 81.131 304.72C81.131 306.446 80.6901 307.965 79.8082 309.279C78.9263 310.582 77.6514 311.603 75.9834 312.341C74.325 313.07 72.3168 313.434 69.9587 313.434C67.6676 313.434 65.6786 313.079 63.9915 312.37C62.3139 311.661 61.0007 310.625 60.0517 309.264C59.1122 307.903 58.6042 306.245 58.5275 304.289H63.7758C63.8525 305.315 64.1688 306.168 64.7248 306.849C65.2808 307.529 66.0045 308.037 66.896 308.373C67.7971 308.708 68.8036 308.876 69.9155 308.876C71.0754 308.876 72.0915 308.703 72.9639 308.358C73.8458 308.004 74.5359 307.515 75.0344 306.892C75.5329 306.259 75.7869 305.521 75.7965 304.677C75.7869 303.91 75.5616 303.278 75.1207 302.779C74.6797 302.271 74.0614 301.849 73.2658 301.514C72.4798 301.169 71.5595 300.862 70.5051 300.594L67.1548 299.731C64.7296 299.108 62.8124 298.164 61.4033 296.898C60.0037 295.623 59.304 293.932 59.304 291.823C59.304 290.088 59.7737 288.568 60.7131 287.265C61.6621 285.961 62.9514 284.95 64.581 284.231C66.2106 283.502 68.0559 283.138 70.1168 283.138C72.2066 283.138 74.0375 283.502 75.6096 284.231C77.1912 284.95 78.4326 285.951 79.3337 287.236C80.2347 288.511 80.6997 289.977 80.7284 291.636H75.5952ZM97.5768 283.54V312.988H92.2423V288.731H92.0697L85.1823 293.131V288.242L92.5011 283.54H97.5768ZM115.939 313.549C113.571 313.549 111.539 312.95 109.842 311.752C108.155 310.544 106.856 308.804 105.945 306.532C105.044 304.251 104.594 301.504 104.594 298.293C104.603 295.082 105.059 292.35 105.96 290.097C106.87 287.835 108.169 286.109 109.856 284.921C111.553 283.732 113.58 283.138 115.939 283.138C118.297 283.138 120.324 283.732 122.021 284.921C123.718 286.109 125.016 287.835 125.918 290.097C126.828 292.359 127.283 295.091 127.283 298.293C127.283 301.514 126.828 304.265 125.918 306.547C125.016 308.818 123.718 310.553 122.021 311.752C120.334 312.95 118.306 313.549 115.939 313.549ZM115.939 309.048C117.779 309.048 119.231 308.143 120.295 306.331C121.369 304.51 121.906 301.83 121.906 298.293C121.906 295.954 121.661 293.989 121.172 292.398C120.684 290.807 119.993 289.608 119.102 288.803C118.21 287.988 117.156 287.581 115.939 287.581C114.108 287.581 112.66 288.492 111.596 290.313C110.532 292.125 109.995 294.785 109.986 298.293C109.976 300.642 110.211 302.616 110.69 304.217C111.179 305.818 111.869 307.026 112.761 307.841C113.652 308.646 114.712 309.048 115.939 309.048ZM134.178 313.305C133.306 313.305 132.558 312.998 131.935 312.384C131.312 311.771 131.005 311.023 131.015 310.141C131.005 309.279 131.312 308.54 131.935 307.927C132.558 307.313 133.306 307.007 134.178 307.007C135.022 307.007 135.755 307.313 136.378 307.927C137.011 308.54 137.332 309.279 137.341 310.141C137.332 310.726 137.179 311.258 136.881 311.737C136.594 312.217 136.21 312.6 135.731 312.888C135.261 313.166 134.744 313.305 134.178 313.305ZM152.396 313.549C150.028 313.549 147.996 312.95 146.299 311.752C144.612 310.544 143.313 308.804 142.403 306.532C141.502 304.251 141.051 301.504 141.051 298.293C141.061 295.082 141.516 292.35 142.417 290.097C143.328 287.835 144.627 286.109 146.314 284.921C148.011 283.732 150.038 283.138 152.396 283.138C154.754 283.138 156.782 283.732 158.478 284.921C160.175 286.109 161.474 287.835 162.375 290.097C163.286 292.359 163.741 295.091 163.741 298.293C163.741 301.514 163.286 304.265 162.375 306.547C161.474 308.818 160.175 310.553 158.478 311.752C156.791 312.95 154.764 313.549 152.396 313.549ZM152.396 309.048C154.237 309.048 155.689 308.143 156.753 306.331C157.827 304.51 158.363 301.83 158.363 298.293C158.363 295.954 158.119 293.989 157.63 292.398C157.141 290.807 156.451 289.608 155.559 288.803C154.668 287.988 153.614 287.581 152.396 287.581C150.565 287.581 149.118 288.492 148.054 290.313C146.99 292.125 146.453 294.785 146.443 298.293C146.434 300.642 146.669 302.616 147.148 304.217C147.637 305.818 148.327 307.026 149.218 307.841C150.11 308.646 151.169 309.048 152.396 309.048ZM179.403 313.549C177.035 313.549 175.003 312.95 173.307 311.752C171.619 310.544 170.321 308.804 169.41 306.532C168.509 304.251 168.058 301.504 168.058 298.293C168.068 295.082 168.523 292.35 169.424 290.097C170.335 287.835 171.634 286.109 173.321 284.921C175.018 283.732 177.045 283.138 179.403 283.138C181.761 283.138 183.789 283.732 185.485 284.921C187.182 286.109 188.481 287.835 189.382 290.097C190.293 292.359 190.748 295.091 190.748 298.293C190.748 301.514 190.293 304.265 189.382 306.547C188.481 308.818 187.182 310.553 185.485 311.752C183.798 312.95 181.771 313.549 179.403 313.549ZM179.403 309.048C181.244 309.048 182.696 308.143 183.76 306.331C184.834 304.51 185.37 301.83 185.37 298.293C185.37 295.954 185.126 293.989 184.637 292.398C184.148 290.807 183.458 289.608 182.567 288.803C181.675 287.988 180.621 287.581 179.403 287.581C177.572 287.581 176.125 288.492 175.061 290.313C173.997 292.125 173.46 294.785 173.45 298.293C173.441 300.642 173.676 302.616 174.155 304.217C174.644 305.818 175.334 307.026 176.225 307.841C177.117 308.646 178.176 309.048 179.403 309.048ZM206.41 313.549C204.042 313.549 202.01 312.95 200.314 311.752C198.626 310.544 197.328 308.804 196.417 306.532C195.516 304.251 195.065 301.504 195.065 298.293C195.075 295.082 195.53 292.35 196.431 290.097C197.342 287.835 198.641 286.109 200.328 284.921C202.025 283.732 204.052 283.138 206.41 283.138C208.768 283.138 210.796 283.732 212.492 284.921C214.189 286.109 215.488 287.835 216.389 290.097C217.3 292.359 217.755 295.091 217.755 298.293C217.755 301.514 217.3 304.265 216.389 306.547C215.488 308.818 214.189 310.553 212.492 311.752C210.805 312.95 208.778 313.549 206.41 313.549ZM206.41 309.048C208.251 309.048 209.703 308.143 210.767 306.331C211.841 304.51 212.377 301.83 212.377 298.293C212.377 295.954 212.133 293.989 211.644 292.398C211.155 290.807 210.465 289.608 209.574 288.803C208.682 287.988 207.628 287.581 206.41 287.581C204.579 287.581 203.132 288.492 202.068 290.313C201.004 292.125 200.467 294.785 200.457 298.293C200.448 300.642 200.683 302.616 201.162 304.217C201.651 305.818 202.341 307.026 203.232 307.841C204.124 308.646 205.183 309.048 206.41 309.048Z" fill="white"/>
<path d="M307.497 293.476H302.119C301.966 292.594 301.683 291.813 301.271 291.132C300.859 290.442 300.346 289.858 299.732 289.378C299.119 288.899 298.419 288.539 297.633 288.3C296.857 288.051 296.018 287.926 295.117 287.926C293.516 287.926 292.097 288.329 290.861 289.134C289.624 289.929 288.656 291.099 287.956 292.642C287.256 294.176 286.906 296.05 286.906 298.264C286.906 300.517 287.256 302.415 287.956 303.958C288.665 305.492 289.634 306.652 290.861 307.438C292.097 308.215 293.511 308.603 295.102 308.603C295.984 308.603 296.809 308.488 297.575 308.258C298.352 308.018 299.047 307.668 299.66 307.208C300.283 306.748 300.806 306.182 301.228 305.511C301.659 304.84 301.956 304.073 302.119 303.211L307.497 303.239C307.296 304.639 306.859 305.952 306.188 307.179C305.527 308.406 304.659 309.489 303.586 310.429C302.512 311.359 301.256 312.087 299.819 312.614C298.381 313.132 296.785 313.391 295.03 313.391C292.442 313.391 290.132 312.792 288.1 311.594C286.068 310.395 284.467 308.665 283.297 306.403C282.128 304.141 281.543 301.428 281.543 298.264C281.543 295.091 282.133 292.379 283.312 290.126C284.491 287.864 286.096 286.133 288.129 284.935C290.161 283.737 292.461 283.138 295.03 283.138C296.67 283.138 298.194 283.368 299.603 283.828C301.012 284.288 302.268 284.964 303.37 285.855C304.473 286.737 305.378 287.821 306.088 289.105C306.807 290.38 307.276 291.837 307.497 293.476ZM318.507 313.434C317.108 313.434 315.847 313.185 314.726 312.686C313.614 312.178 312.732 311.431 312.08 310.443C311.438 309.456 311.117 308.238 311.117 306.791C311.117 305.545 311.347 304.514 311.807 303.7C312.267 302.885 312.895 302.233 313.691 301.744C314.486 301.255 315.382 300.886 316.379 300.637C317.386 300.378 318.426 300.191 319.5 300.076C320.794 299.942 321.843 299.822 322.649 299.717C323.454 299.602 324.038 299.429 324.403 299.199C324.777 298.959 324.964 298.59 324.964 298.092V298.006C324.964 296.922 324.642 296.084 324 295.489C323.358 294.895 322.433 294.598 321.225 294.598C319.95 294.598 318.939 294.876 318.191 295.432C317.453 295.988 316.955 296.644 316.696 297.402L311.836 296.711C312.219 295.369 312.852 294.248 313.734 293.347C314.616 292.436 315.694 291.756 316.969 291.305C318.244 290.845 319.653 290.615 321.196 290.615C322.26 290.615 323.32 290.739 324.374 290.989C325.428 291.238 326.392 291.65 327.264 292.225C328.136 292.791 328.836 293.562 329.363 294.54C329.9 295.518 330.169 296.74 330.169 298.207V312.988H325.165V309.954H324.992C324.676 310.568 324.23 311.143 323.655 311.68C323.089 312.207 322.375 312.634 321.513 312.96C320.659 313.276 319.658 313.434 318.507 313.434ZM319.859 309.609C320.904 309.609 321.81 309.403 322.577 308.991C323.344 308.569 323.933 308.013 324.345 307.323C324.767 306.633 324.978 305.88 324.978 305.066V302.463C324.815 302.597 324.537 302.722 324.144 302.837C323.761 302.952 323.329 303.053 322.85 303.139C322.371 303.225 321.896 303.302 321.426 303.369C320.957 303.436 320.549 303.493 320.204 303.541C319.428 303.647 318.733 303.819 318.119 304.059C317.506 304.299 317.022 304.634 316.667 305.066C316.312 305.487 316.135 306.034 316.135 306.705C316.135 307.663 316.485 308.387 317.185 308.876C317.884 309.365 318.776 309.609 319.859 309.609ZM335.403 312.988V290.902H340.45V294.583H340.68C341.082 293.308 341.772 292.326 342.75 291.636C343.738 290.936 344.864 290.586 346.129 290.586C346.417 290.586 346.738 290.6 347.093 290.629C347.457 290.648 347.759 290.682 347.998 290.73V295.518C347.778 295.441 347.428 295.374 346.949 295.317C346.479 295.25 346.024 295.216 345.583 295.216C344.634 295.216 343.781 295.422 343.023 295.834C342.276 296.237 341.686 296.798 341.255 297.517C340.823 298.236 340.608 299.065 340.608 300.004V312.988H335.403ZM358.743 313.377C357.008 313.377 355.455 312.931 354.084 312.039C352.713 311.148 351.63 309.854 350.835 308.157C350.039 306.46 349.641 304.399 349.641 301.974C349.641 299.52 350.044 297.45 350.849 295.762C351.664 294.066 352.761 292.786 354.142 291.923C355.522 291.051 357.061 290.615 358.757 290.615C360.051 290.615 361.116 290.835 361.949 291.276C362.783 291.708 363.445 292.23 363.934 292.844C364.423 293.447 364.801 294.018 365.07 294.555H365.285V283.54H370.505V312.988H365.386V309.509H365.07C364.801 310.045 364.413 310.616 363.905 311.22C363.397 311.814 362.726 312.322 361.892 312.744C361.058 313.166 360.008 313.377 358.743 313.377ZM360.195 309.106C361.298 309.106 362.237 308.809 363.014 308.215C363.79 307.611 364.38 306.772 364.782 305.698C365.185 304.625 365.386 303.374 365.386 301.945C365.386 300.517 365.185 299.276 364.782 298.221C364.389 297.167 363.804 296.347 363.028 295.762C362.261 295.178 361.317 294.885 360.195 294.885C359.035 294.885 358.067 295.187 357.291 295.791C356.514 296.395 355.93 297.229 355.537 298.293C355.144 299.357 354.947 300.575 354.947 301.945C354.947 303.326 355.144 304.557 355.537 305.641C355.939 306.714 356.529 307.563 357.305 308.186C358.091 308.799 359.055 309.106 360.195 309.106ZM391.3 283.54V312.988H386.095V283.54H391.3ZM396.653 312.988V290.902H401.858V312.988H396.653ZM399.27 287.768C398.445 287.768 397.736 287.495 397.142 286.948C396.547 286.392 396.25 285.726 396.25 284.95C396.25 284.164 396.547 283.497 397.142 282.951C397.736 282.395 398.445 282.117 399.27 282.117C400.104 282.117 400.813 282.395 401.398 282.951C401.992 283.497 402.289 284.164 402.289 284.95C402.289 285.726 401.992 286.392 401.398 286.948C400.813 287.495 400.104 287.768 399.27 287.768ZM407.21 312.988V290.902H412.186V294.655H412.444C412.904 293.39 413.667 292.403 414.731 291.693C415.795 290.974 417.065 290.615 418.541 290.615C420.036 290.615 421.297 290.979 422.323 291.708C423.358 292.427 424.086 293.409 424.508 294.655H424.738C425.227 293.428 426.052 292.451 427.211 291.722C428.381 290.984 429.766 290.615 431.367 290.615C433.399 290.615 435.057 291.257 436.342 292.542C437.626 293.826 438.269 295.7 438.269 298.164V312.988H433.049V298.969C433.049 297.598 432.685 296.596 431.956 295.964C431.228 295.321 430.336 295 429.282 295C428.026 295 427.044 295.393 426.334 296.179C425.635 296.956 425.285 297.967 425.285 299.213V312.988H420.18V298.753C420.18 297.613 419.835 296.702 419.145 296.021C418.464 295.341 417.573 295 416.47 295C415.723 295 415.042 295.192 414.429 295.576C413.815 295.949 413.326 296.481 412.962 297.172C412.598 297.852 412.416 298.648 412.416 299.558V312.988H407.21ZM443.549 312.988V290.902H448.755V312.988H443.549ZM446.166 287.768C445.342 287.768 444.633 287.495 444.038 286.948C443.444 286.392 443.147 285.726 443.147 284.95C443.147 284.164 443.444 283.497 444.038 282.951C444.633 282.395 445.342 282.117 446.166 282.117C447 282.117 447.71 282.395 448.294 282.951C448.889 283.497 449.186 284.164 449.186 284.95C449.186 285.726 448.889 286.392 448.294 286.948C447.71 287.495 447 287.768 446.166 287.768ZM465.136 290.902V294.928H452.439V290.902H465.136ZM455.574 285.611H460.779V306.345C460.779 307.045 460.884 307.582 461.095 307.956C461.316 308.32 461.603 308.569 461.958 308.703C462.313 308.838 462.706 308.905 463.137 308.905C463.463 308.905 463.76 308.881 464.028 308.833C464.306 308.785 464.517 308.742 464.661 308.703L465.538 312.773C465.26 312.868 464.862 312.974 464.345 313.089C463.837 313.204 463.214 313.271 462.476 313.29C461.172 313.329 459.998 313.132 458.953 312.701C457.908 312.26 457.079 311.579 456.465 310.659C455.861 309.739 455.564 308.588 455.574 307.208V285.611Z" fill="#40CADF"/>
<path d="M57.3764 459.742H64.9924L75.1918 484.636H75.5944L85.7938 459.742H93.4098V494.098H87.4378V470.495H87.119L77.6242 493.997H73.162L63.6671 470.444H63.3484V494.098H57.3764V459.742ZM107.333 494.618C105.7 494.618 104.23 494.327 102.921 493.745C101.624 493.153 100.595 492.28 99.8347 491.128C99.0854 489.977 98.7108 488.556 98.7108 486.867C98.7108 485.414 98.9792 484.211 99.516 483.261C100.053 482.31 100.785 481.55 101.714 480.979C102.642 480.409 103.687 479.978 104.851 479.688C106.025 479.386 107.238 479.168 108.491 479.033C110.001 478.877 111.225 478.737 112.165 478.614C113.104 478.48 113.786 478.279 114.211 478.01C114.647 477.731 114.865 477.3 114.865 476.718V476.618C114.865 475.354 114.491 474.375 113.741 473.682C112.992 472.989 111.913 472.642 110.504 472.642C109.016 472.642 107.837 472.966 106.964 473.615C106.103 474.264 105.522 475.03 105.22 475.913L99.5495 475.108C99.9969 473.542 100.735 472.234 101.764 471.183C102.793 470.12 104.051 469.326 105.538 468.8C107.026 468.264 108.67 467.995 110.47 467.995C111.712 467.995 112.947 468.141 114.178 468.431C115.408 468.722 116.532 469.203 117.549 469.874C118.567 470.534 119.384 471.434 119.999 472.575C120.625 473.716 120.938 475.142 120.938 476.853V494.098H115.1V490.558H114.899C114.53 491.274 114.01 491.945 113.339 492.571C112.679 493.186 111.846 493.684 110.839 494.064C109.844 494.433 108.675 494.618 107.333 494.618ZM108.91 490.155C110.129 490.155 111.186 489.915 112.081 489.434C112.975 488.942 113.663 488.293 114.144 487.488C114.636 486.683 114.882 485.805 114.882 484.854V481.818C114.692 481.975 114.368 482.12 113.909 482.254C113.462 482.388 112.959 482.506 112.399 482.607C111.84 482.707 111.287 482.797 110.739 482.875C110.191 482.953 109.715 483.02 109.313 483.076C108.407 483.199 107.596 483.401 106.88 483.68C106.165 483.96 105.6 484.351 105.186 484.854C104.772 485.347 104.565 485.984 104.565 486.767C104.565 487.885 104.974 488.73 105.79 489.3C106.606 489.87 107.646 490.155 108.91 490.155ZM127.044 494.098V468.331H132.932V472.625H133.201C133.67 471.138 134.476 469.992 135.616 469.186C136.768 468.37 138.082 467.962 139.559 467.962C139.894 467.962 140.269 467.979 140.683 468.012C141.108 468.034 141.46 468.074 141.739 468.129V473.716C141.482 473.626 141.074 473.548 140.515 473.481C139.967 473.403 139.436 473.363 138.921 473.363C137.814 473.363 136.819 473.604 135.935 474.085C135.063 474.554 134.375 475.209 133.872 476.047C133.369 476.886 133.117 477.854 133.117 478.95V494.098H127.044ZM160.025 468.331V473.028H145.212V468.331H160.025ZM148.869 462.157H154.942V486.347C154.942 487.164 155.065 487.79 155.311 488.226C155.568 488.651 155.903 488.942 156.317 489.099C156.731 489.255 157.189 489.333 157.693 489.333C158.073 489.333 158.42 489.306 158.733 489.25C159.057 489.194 159.303 489.143 159.471 489.099L160.494 493.846C160.17 493.958 159.706 494.081 159.102 494.215C158.509 494.349 157.782 494.428 156.921 494.45C155.4 494.495 154.03 494.265 152.811 493.762C151.592 493.248 150.625 492.454 149.909 491.38C149.204 490.306 148.858 488.964 148.869 487.354V462.157ZM165.103 494.098V468.331H171.176V494.098H165.103ZM168.156 464.674C167.195 464.674 166.367 464.355 165.674 463.718C164.98 463.069 164.634 462.292 164.634 461.386C164.634 460.469 164.98 459.692 165.674 459.054C166.367 458.405 167.195 458.081 168.156 458.081C169.129 458.081 169.957 458.405 170.639 459.054C171.332 459.692 171.679 460.469 171.679 461.386C171.679 462.292 171.332 463.069 170.639 463.718C169.957 464.355 169.129 464.674 168.156 464.674ZM183.493 479V494.098H177.42V468.331H183.225V472.709H183.527C184.119 471.266 185.064 470.12 186.362 469.27C187.67 468.42 189.286 467.995 191.21 467.995C192.988 467.995 194.537 468.376 195.857 469.136C197.187 469.896 198.216 470.998 198.943 472.441C199.681 473.883 200.045 475.634 200.034 477.691V494.098H193.961V478.631C193.961 476.909 193.514 475.561 192.619 474.588C191.735 473.615 190.511 473.129 188.945 473.129C187.883 473.129 186.938 473.363 186.11 473.833C185.294 474.292 184.651 474.957 184.181 475.829C183.722 476.702 183.493 477.759 183.493 479ZM217.614 494.601C215.031 494.601 212.8 494.064 210.921 492.99C209.053 491.906 207.616 490.374 206.61 488.394C205.603 486.403 205.1 484.06 205.1 481.365C205.1 478.715 205.603 476.389 206.61 474.387C207.627 472.374 209.048 470.808 210.87 469.69C212.693 468.56 214.835 467.995 217.295 467.995C218.883 467.995 220.382 468.253 221.791 468.767C223.211 469.27 224.464 470.053 225.549 471.115C226.645 472.178 227.506 473.531 228.132 475.175C228.759 476.808 229.072 478.754 229.072 481.013V482.875H207.952V478.782H223.251C223.239 477.619 222.988 476.584 222.496 475.678C222.004 474.761 221.316 474.04 220.432 473.514C219.56 472.989 218.542 472.726 217.379 472.726C216.138 472.726 215.048 473.028 214.108 473.632C213.169 474.225 212.436 475.007 211.911 475.98C211.396 476.942 211.133 477.999 211.122 479.151V482.724C211.122 484.223 211.396 485.509 211.944 486.582C212.492 487.645 213.258 488.461 214.242 489.032C215.226 489.591 216.378 489.87 217.698 489.87C218.582 489.87 219.381 489.747 220.097 489.501C220.813 489.244 221.433 488.869 221.959 488.377C222.485 487.885 222.882 487.276 223.15 486.549L228.82 487.186C228.462 488.685 227.78 489.993 226.773 491.112C225.778 492.219 224.503 493.08 222.949 493.695C221.394 494.299 219.616 494.601 217.614 494.601ZM254.574 475.142L249.038 475.745C248.882 475.186 248.608 474.661 248.216 474.169C247.836 473.677 247.322 473.28 246.673 472.978C246.025 472.676 245.23 472.525 244.291 472.525C243.027 472.525 241.965 472.799 241.104 473.347C240.254 473.895 239.834 474.605 239.846 475.477C239.834 476.226 240.108 476.836 240.668 477.306C241.238 477.775 242.177 478.161 243.486 478.463L247.881 479.402C250.319 479.928 252.131 480.761 253.316 481.902C254.513 483.043 255.117 484.536 255.128 486.381C255.117 488.003 254.641 489.434 253.702 490.675C252.774 491.906 251.482 492.867 249.827 493.561C248.172 494.254 246.271 494.601 244.123 494.601C240.97 494.601 238.431 493.941 236.507 492.621C234.584 491.291 233.437 489.44 233.068 487.069L238.99 486.498C239.258 487.662 239.829 488.539 240.701 489.132C241.573 489.725 242.709 490.021 244.107 490.021C245.549 490.021 246.707 489.725 247.579 489.132C248.463 488.539 248.904 487.807 248.904 486.935C248.904 486.196 248.619 485.587 248.049 485.106C247.49 484.625 246.617 484.256 245.432 483.999L241.037 483.076C238.565 482.562 236.737 481.695 235.551 480.476C234.366 479.246 233.779 477.691 233.79 475.813C233.779 474.225 234.209 472.849 235.081 471.686C235.965 470.512 237.19 469.606 238.755 468.968C240.332 468.32 242.149 467.995 244.207 467.995C247.227 467.995 249.603 468.638 251.337 469.924C253.081 471.211 254.161 472.95 254.574 475.142Z" fill="white"/>
<path d="M701.396 494.752C698.634 494.752 696.263 494.053 694.283 492.655C692.315 491.246 690.8 489.216 689.737 486.566C688.686 483.904 688.16 480.7 688.16 476.953C688.172 473.207 688.703 470.019 689.754 467.391C690.816 464.752 692.332 462.739 694.3 461.352C696.28 459.965 698.645 459.272 701.396 459.272C704.147 459.272 706.513 459.965 708.492 461.352C710.471 462.739 711.987 464.752 713.038 467.391C714.101 470.031 714.632 473.218 714.632 476.953C714.632 480.711 714.101 483.921 713.038 486.582C711.987 489.233 710.471 491.257 708.492 492.655C706.524 494.053 704.158 494.752 701.396 494.752ZM701.396 489.501C703.543 489.501 705.238 488.444 706.479 486.331C707.732 484.206 708.358 481.08 708.358 476.953C708.358 474.225 708.073 471.932 707.502 470.075C706.932 468.219 706.127 466.821 705.087 465.882C704.047 464.931 702.816 464.456 701.396 464.456C699.26 464.456 697.571 465.518 696.33 467.643C695.089 469.757 694.462 472.86 694.451 476.953C694.44 479.693 694.714 481.997 695.273 483.865C695.843 485.732 696.649 487.141 697.689 488.092C698.729 489.032 699.965 489.501 701.396 489.501ZM719.585 487.723V482.774L734.162 459.742H738.289V466.787H735.773L725.959 482.338V482.607H746.308V487.723H719.585ZM735.974 494.098V486.213L736.041 483.999V459.742H741.913V494.098H735.974ZM765.759 458.131L754.687 499.264H749.369L760.441 458.131H765.759ZM769.567 494.098V489.602L781.494 477.909C782.635 476.758 783.585 475.734 784.346 474.84C785.106 473.945 785.677 473.078 786.057 472.239C786.437 471.401 786.627 470.506 786.627 469.555C786.627 468.471 786.381 467.542 785.889 466.771C785.397 465.988 784.72 465.384 783.859 464.959C782.998 464.534 782.02 464.321 780.924 464.321C779.794 464.321 778.804 464.556 777.954 465.026C777.104 465.485 776.445 466.139 775.975 466.989C775.516 467.839 775.287 468.851 775.287 470.025H769.365C769.365 467.844 769.863 465.949 770.858 464.338C771.854 462.728 773.224 461.481 774.968 460.597C776.724 459.714 778.737 459.272 781.007 459.272C783.311 459.272 785.335 459.703 787.08 460.564C788.825 461.425 790.178 462.605 791.14 464.103C792.113 465.602 792.599 467.313 792.599 469.237C792.599 470.523 792.353 471.786 791.861 473.028C791.369 474.269 790.502 475.645 789.261 477.155C788.031 478.664 786.303 480.493 784.077 482.64L778.156 488.662V488.897H793.119V494.098H769.567ZM810.851 494.567C808.614 494.567 806.612 494.148 804.845 493.309C803.078 492.459 801.675 491.296 800.635 489.82C799.606 488.344 799.058 486.655 798.991 484.754H805.03C805.142 486.163 805.751 487.315 806.858 488.21C807.965 489.093 809.296 489.535 810.851 489.535C812.07 489.535 813.155 489.255 814.105 488.696C815.056 488.137 815.805 487.36 816.353 486.364C816.901 485.369 817.169 484.234 817.158 482.959C817.169 481.662 816.895 480.51 816.336 479.503C815.777 478.497 815.011 477.708 814.038 477.138C813.065 476.556 811.947 476.266 810.683 476.266C809.654 476.254 808.642 476.444 807.647 476.836C806.651 477.227 805.863 477.742 805.281 478.379L799.662 477.457L801.457 459.742H821.386V464.942H806.607L805.617 474.051H805.818C806.456 473.302 807.356 472.681 808.519 472.189C809.682 471.686 810.957 471.434 812.344 471.434C814.424 471.434 816.28 471.926 817.913 472.91C819.546 473.883 820.832 475.225 821.771 476.937C822.711 478.648 823.181 480.605 823.181 482.808C823.181 485.078 822.655 487.102 821.604 488.881C820.564 490.648 819.115 492.04 817.259 493.058C815.414 494.064 813.278 494.567 810.851 494.567Z" fill="white"/>
<circle cx="747.055" cy="89.7551" r="35.7669" fill="#EB001B"/>
<circle cx="790.245" cy="89.7551" r="35.7669" fill="#FA9B0F"/>
<circle opacity="0.5" cx="747.055" cy="89.7551" r="35.7669" fill="#EB001B"/>
</g>
<defs>
<clipPath id="clip0_1_1987">
<rect width="880" height="558.773" rx="40.4908" fill="white"/>
</clipPath>
</defs>
</svg>
