<svg xmlns="http://www.w3.org/2000/svg" width="194.083" height="131.307" viewBox="0 0 194.083 131.307">
  <path id="Credit-Card-Icon-SVG-0ep_dd" data-name="Credit-Card-Icon-SVG-0ep,dd" d="M14.481,130.307A14.484,14.484,0,0,1,0,115.826V14.481A14.484,14.484,0,0,1,14.481,0H178.6a14.5,14.5,0,0,1,14.481,14.481V115.826A14.5,14.5,0,0,1,178.6,130.307ZM9.654,14.481V115.826a4.839,4.839,0,0,0,4.827,4.852H178.6a4.855,4.855,0,0,0,4.827-4.852V14.481A4.833,4.833,0,0,0,178.6,9.654H14.481A4.817,4.817,0,0,0,9.654,14.481Zm77.234,91.706V96.532h33.79v9.654Zm-62.753,0V96.532h53.1v9.654Zm115.85-19.309V77.224h28.963v9.654Zm-38.616,0V77.224h28.962v9.654Zm-38.617,0V77.224H91.715v9.654Zm-38.616,0V77.224H53.1v9.654ZM38.616,62.753A14.484,14.484,0,0,1,24.135,48.271V38.617A14.5,14.5,0,0,1,38.616,24.136h13.9A14.516,14.516,0,0,1,67,38.617v9.654A14.5,14.5,0,0,1,52.517,62.753ZM33.79,38.617v9.654A4.817,4.817,0,0,0,38.616,53.1h13.9a4.832,4.832,0,0,0,4.827-4.827V38.617a4.833,4.833,0,0,0-4.827-4.827h-13.9A4.817,4.817,0,0,0,33.79,38.617Z" transform="translate(0.5 0.5)" fill="#1e0e00" stroke="rgba(0,0,0,0)" stroke-miterlimit="10" stroke-width="1"/>
</svg>
