<svg width="60" height="61" viewBox="0 0 60 61" fill="none" xmlns="http://www.w3.org/2000/svg">
<g filter="url(#filter0_d_1_2506)">
<path fill-rule="evenodd" clip-rule="evenodd" d="M43.275 9H45.75C48.7326 9.00357 51.592 10.19 53.701 12.299C55.81 14.408 56.9964 17.2674 57 20.25V27H3V20.25C3.00357 17.2674 4.18998 14.408 6.29899 12.299C8.40801 10.19 11.2674 9.00357 14.25 9H16.725C17.2472 6.46068 18.6289 4.17903 20.6372 2.53962C22.6455 0.900203 25.1575 0.00327268 27.75 0H32.25C34.8425 0.00327268 37.3545 0.900203 39.3628 2.53962C41.3711 4.17903 42.7528 6.46068 43.275 9ZM23.8694 5.7467C22.7353 6.55221 21.8777 7.68846 21.414 9H38.586C38.1223 7.68846 37.2647 6.55221 36.1306 5.7467C34.9964 4.94119 33.6411 4.50577 32.25 4.5H27.75C26.3589 4.50577 25.0036 4.94119 23.8694 5.7467Z" fill="url(#paint0_linear_1_2506)"/>
<path d="M31.591 35.341C32.0129 34.919 32.25 34.3467 32.25 33.75V31.5H57V42.75C56.9964 45.7325 55.81 48.5919 53.701 50.701C51.592 52.81 48.7326 53.9964 45.75 53.9999H14.25C11.2674 53.9964 8.40801 52.81 6.29899 50.701C4.18998 48.5919 3.00357 45.7325 3 42.75V31.5H27.75V33.75C27.75 34.3467 27.9871 34.919 28.409 35.341C28.831 35.7629 29.4033 36 30 36C30.5967 36 31.169 35.7629 31.591 35.341Z" fill="url(#paint1_linear_1_2506)"/>
</g>
<defs>
<filter id="filter0_d_1_2506" x="0" y="0" width="60" height="61" filterUnits="userSpaceOnUse" color-interpolation-filters="sRGB">
<feFlood flood-opacity="0" result="BackgroundImageFix"/>
<feColorMatrix in="SourceAlpha" type="matrix" values="0 0 0 0 0 0 0 0 0 0 0 0 0 0 0 0 0 0 127 0" result="hardAlpha"/>
<feOffset dy="4"/>
<feGaussianBlur stdDeviation="1.5"/>
<feComposite in2="hardAlpha" operator="out"/>
<feColorMatrix type="matrix" values="0 0 0 0 0.705882 0 0 0 0 0.964706 0 0 0 0 1 0 0 0 0.46 0"/>
<feBlend mode="normal" in2="BackgroundImageFix" result="effect1_dropShadow_1_2506"/>
<feBlend mode="normal" in="SourceGraphic" in2="effect1_dropShadow_1_2506" result="shape"/>
</filter>
<linearGradient id="paint0_linear_1_2506" x1="2.99394" y1="26.9999" x2="56.9768" y2="59.6288" gradientUnits="userSpaceOnUse">
<stop stop-color="#44E9FF"/>
<stop offset="1" stop-color="#00D1FF"/>
</linearGradient>
<linearGradient id="paint1_linear_1_2506" x1="2.99394" y1="26.9999" x2="56.9768" y2="59.6288" gradientUnits="userSpaceOnUse">
<stop stop-color="#44E9FF"/>
<stop offset="1" stop-color="#00D1FF"/>
</linearGradient>
</defs>
</svg>
