<svg width="58" height="58" viewBox="0 0 58 58" fill="none" xmlns="http://www.w3.org/2000/svg">
<path fill-rule="evenodd" clip-rule="evenodd" d="M54.5417 6.41667H50.7857C49.4645 2.67835 45.8991 0 41.7083 0C37.5176 0 33.9522 2.67835 32.631 6.41667H3.20833C1.43643 6.41667 0 7.8531 0 9.625C0 11.3969 1.43643 12.8333 3.20833 12.8333H32.631C33.9522 16.5717 37.5176 19.25 41.7083 19.25C45.8991 19.25 49.4645 16.5717 50.7857 12.8333H54.5417C56.3136 12.8333 57.75 11.3969 57.75 9.625C57.75 7.8531 56.3136 6.41667 54.5417 6.41667ZM41.7083 12.8333C43.4803 12.8333 44.9167 11.3969 44.9167 9.625C44.9167 7.8531 43.4803 6.41667 41.7083 6.41667C39.9364 6.41667 38.5 7.8531 38.5 9.625C38.5 11.3969 39.9364 12.8333 41.7083 12.8333ZM0 28.875C0 27.103 1.43643 25.6667 3.20833 25.6667H6.96436C8.28565 21.9283 11.8509 19.25 16.0417 19.25C20.2325 19.25 23.7978 21.9283 25.119 25.6667H54.5417C56.3136 25.6667 57.75 27.103 57.75 28.875C57.75 30.647 56.3136 32.0833 54.5417 32.0833H25.119C23.7978 35.8217 20.2325 38.5 16.0417 38.5C11.8509 38.5 8.28565 35.8217 6.96436 32.0833H3.20833C1.43643 32.0833 0 30.647 0 28.875ZM16.0417 32.0833C17.8136 32.0833 19.25 30.647 19.25 28.875C19.25 27.103 17.8136 25.6667 16.0417 25.6667C14.2698 25.6667 12.8333 27.103 12.8333 28.875C12.8333 30.647 14.2698 32.0833 16.0417 32.0833ZM3.20833 44.9167C1.43643 44.9167 0 46.353 0 48.125C0 49.897 1.43643 51.3333 3.20833 51.3333H32.631C33.9522 55.0717 37.5176 57.75 41.7083 57.75C45.8991 57.75 49.4645 55.0717 50.7857 51.3333H54.5417C56.3136 51.3333 57.75 49.897 57.75 48.125C57.75 46.353 56.3136 44.9167 54.5417 44.9167H50.7857C49.4645 41.1783 45.8991 38.5 41.7083 38.5C37.5176 38.5 33.9522 41.1783 32.631 44.9167H3.20833ZM44.9167 48.125C44.9167 49.897 43.4803 51.3333 41.7083 51.3333C39.9364 51.3333 38.5 49.897 38.5 48.125C38.5 46.353 39.9364 44.9167 41.7083 44.9167C43.4803 44.9167 44.9167 46.353 44.9167 48.125Z" fill="#CCC8E1"/>
</svg>
