<svg width="66" height="66" viewBox="0 0 66 66" fill="none" xmlns="http://www.w3.org/2000/svg">
<g filter="url(#filter0_d_1_2508)">
<path d="M62.0168 33.1876C62.0168 33.9947 61.8578 34.7938 61.549 35.5395C61.2401 36.2851 60.7874 36.9626 60.2167 37.5333C59.646 38.104 58.9685 38.5567 58.2229 38.8656C57.4772 39.1744 56.6781 39.3334 55.871 39.3334H45.9491L35.5602 55.2806C34.9209 56.4148 33.9901 57.3576 32.8642 58.0115C31.7384 58.6654 30.4582 59.0067 29.1563 59.0001C28.1116 59.0004 27.0825 58.7474 26.157 58.2629C25.2315 57.7784 24.4372 57.0768 23.8423 56.2182C23.2473 55.3595 22.8693 54.3694 22.7407 53.3327C22.6121 52.296 22.7367 51.2436 23.1039 50.2656L27.6469 39.3334H17.7668C16.0334 39.3335 14.3307 38.8754 12.8313 38.0055C11.332 37.1356 10.0892 35.8848 9.22902 34.3799L3.50848 24.9767C3.26404 24.5708 3.1034 24.1201 3.03604 23.6511C2.96867 23.1821 2.99594 22.7043 3.11624 22.246C3.23654 21.7878 3.44744 21.3582 3.73647 20.9828C4.0255 20.6073 4.38682 20.2936 4.7991 20.0601C5.45334 19.717 6.19995 19.5917 6.93034 19.7022C7.66074 19.8127 8.33682 20.1534 8.86027 20.6747L12.3437 24.1606C14.1874 26.0048 16.6881 27.0412 19.2959 27.0417H55.871C56.6781 27.0417 57.4772 27.2007 58.2229 27.5096C58.9685 27.8184 59.646 28.2711 60.2167 28.8418C60.7874 29.4125 61.2401 30.09 61.549 30.8357C61.8578 31.5813 62.0168 32.3805 62.0168 33.1876ZM46.6055 22.1251L35.543 3.71953C34.9045 2.58626 33.9749 1.64403 32.8504 0.990154C31.7259 0.336282 30.4472 -0.00551589 29.1464 6.73196e-05C28.102 0.00035172 27.0732 0.253662 26.148 0.738324C25.2228 1.22299 24.4288 1.92457 23.8339 2.78305C23.2391 3.64153 22.861 4.63134 22.7322 5.66781C22.6033 6.70427 22.7275 7.75652 23.094 8.73453L28.3008 22.1251H46.6055Z" fill="url(#paint0_linear_1_2508)"/>
</g>
<defs>
<filter id="filter0_d_1_2508" x="0" y="0" width="65.0166" height="66" filterUnits="userSpaceOnUse" color-interpolation-filters="sRGB">
<feFlood flood-opacity="0" result="BackgroundImageFix"/>
<feColorMatrix in="SourceAlpha" type="matrix" values="0 0 0 0 0 0 0 0 0 0 0 0 0 0 0 0 0 0 127 0" result="hardAlpha"/>
<feOffset dy="4"/>
<feGaussianBlur stdDeviation="1.5"/>
<feComposite in2="hardAlpha" operator="out"/>
<feColorMatrix type="matrix" values="0 0 0 0 0.705882 0 0 0 0 0.964706 0 0 0 0 1 0 0 0 0.46 0"/>
<feBlend mode="normal" in2="BackgroundImageFix" result="effect1_dropShadow_1_2508"/>
<feBlend mode="normal" in="SourceGraphic" in2="effect1_dropShadow_1_2508" result="shape"/>
</filter>
<linearGradient id="paint0_linear_1_2508" x1="2.99338" y1="29.5" x2="61.9826" y2="65.165" gradientUnits="userSpaceOnUse">
<stop stop-color="#50EAFF"/>
<stop offset="1" stop-color="#00D1FF"/>
</linearGradient>
</defs>
</svg>
