<?xml version="1.0" encoding="utf-8"?>
<!-- Generator: Adobe Illustrator 24.1.1, SVG Export Plug-In . SVG Version: 6.00 Build 0)  -->
<svg version="1.1" id="Layer_1" xmlns="http://www.w3.org/2000/svg" xmlns:xlink="http://www.w3.org/1999/xlink" x="0px" y="0px"
	 viewBox="0 0 512 512" style="enable-background:new 0 0 512 512;" xml:space="preserve">
<style type="text/css">
	.st0{fill:#333333;}
</style>
<g id="XMLID_2_">
	<path id="XMLID_10_" class="st0" d="M158.3,256c-28.9,0.9-52.1,12.1-70.7,34.4H52.1c-14.9,0-27-3.7-37.2-11.2S0,261.6,0,247.6
		c0-62.4,11.2-94,33.5-94c0.9,0,4.7,1.9,11.2,5.6c6.5,3.7,14.9,7.4,26.1,11.2c10.2,3.7,21.4,5.6,31.7,5.6c12.1,0,23.3-1.9,35.4-6.5
		c-0.9,6.5-0.9,12.1-0.9,17.7C136.8,212.2,143.4,235.5,158.3,256z M444,425.4c0,21.4-6.5,38.2-19.5,50.3
		c-13,12.1-29.8,18.6-52.1,18.6H139.6c-21.4,0-39.1-6.5-52.1-18.6c-13-12.1-19.5-28.9-19.5-50.3c0-9.3,0-18.6,0.9-27.9
		c0.9-9.3,1.9-18.6,3.7-28.9c1.9-10.2,4.7-20.5,7.4-28.9c2.8-9.3,6.5-17.7,11.2-26.1c4.7-8.4,10.2-15.8,16.8-21.4
		c6.5-5.6,14-11.2,22.3-14c8.4-2.8,18.6-5.6,29.8-5.6c1.9,0,5.6,1.9,11.2,5.6c5.6,3.7,12.1,8.4,19.5,13s16.8,9.3,28.9,13
		c12.1,3.7,24.2,5.6,36.3,5.6c12.1,0,24.2-1.9,36.3-5.6c12.1-3.7,21.4-8.4,28.9-13s14-9.3,19.5-13c5.6-3.7,9.3-5.6,11.2-5.6
		c11.2,0,20.5,1.9,29.8,5.6c9.3,3.7,16.8,8.4,22.3,14c6.5,5.6,12.1,13,16.8,21.4c4.7,8.4,8.4,16.8,11.2,26.1
		c2.8,9.3,5.6,18.6,7.4,28.9c1.9,10.2,2.8,20.5,3.7,28.9C443.1,406.8,444,416.1,444,425.4z M170.4,85.6c0,18.6-6.5,35.4-19.5,48.4
		c-13,13-29.8,19.5-48.4,19.5S67,147.1,54,134.1c-13-13-19.5-29.8-19.5-48.4S41,50.3,54,37.2c13-13,29.8-19.5,48.4-19.5
		s35.4,6.5,48.4,19.5C163.8,50.3,170.4,66.1,170.4,85.6z M358.4,188c0,27.9-10.2,52.1-29.8,72.6s-44.7,29.8-72.6,29.8
		s-52.1-10.2-72.6-29.8c-20.5-19.5-29.8-44.7-29.8-72.6s10.2-52.1,29.8-72.6s43.8-29.8,72.6-29.8s52.1,10.2,72.6,29.8
		S358.4,159.2,358.4,188z M512,247.6c0,14-4.7,24.2-14.9,31.7c-10.2,7.4-22.3,11.2-37.2,11.2h-35.4c-18.6-21.4-41.9-33.5-70.7-34.4
		c14-20.5,21.4-43.8,21.4-68c0-5.6,0-11.2-0.9-17.7c12.1,3.7,23.3,6.5,35.4,6.5c10.2,0,21.4-1.9,31.7-5.6
		c10.2-3.7,19.5-7.4,26.1-11.2c6.5-3.7,10.2-5.6,11.2-5.6C500.8,153.6,512,185.3,512,247.6z M477.6,85.6c0,18.6-6.5,35.4-19.5,48.4
		s-29.8,19.5-48.4,19.5c-18.6,0-35.4-6.5-48.4-19.5c-13-13-19.5-29.8-19.5-48.4s6.5-35.4,19.5-48.4c13-13,29.8-19.5,48.4-19.5
		c18.6,0,35.4,6.5,48.4,19.5C471,50.3,477.6,66.1,477.6,85.6z"/>
</g>
</svg>
