<svg width="37" height="32" viewBox="0 0 37 32" fill="none" xmlns="http://www.w3.org/2000/svg">
<path d="M26.8117 0.8125C25.1498 0.838349 23.5242 1.30226 22.099 2.15738C20.6738 3.0125 19.4995 4.22855 18.6946 5.68273C17.8897 4.22855 16.7154 3.0125 15.2902 2.15738C13.865 1.30226 12.2394 0.838349 10.5776 0.8125C7.92836 0.927601 5.43239 2.08651 3.63495 4.03605C1.8375 5.98558 0.884696 8.56727 0.984684 11.2171C0.984684 17.9277 8.04799 25.2566 13.972 30.2257C15.2946 31.3372 16.9669 31.9466 18.6946 31.9466C20.4223 31.9466 22.0946 31.3372 23.4173 30.2257C29.3412 25.2566 36.4045 17.9277 36.4045 11.2171C36.5045 8.56727 35.5517 5.98558 33.7543 4.03605C31.9568 2.08651 29.4609 0.927601 26.8117 0.8125Z" fill="url(#paint0_linear_317_492)"/>
<defs>
<linearGradient id="paint0_linear_317_492" x1="-11.8397" y1="-6.59625" x2="49.229" y2="49.5869" gradientUnits="userSpaceOnUse">
<stop stop-color="#FF6C6C"/>
<stop offset="1" stop-color="#FF7991"/>
</linearGradient>
</defs>
</svg>
