<svg width="28" height="30" viewBox="0 0 28 30" fill="none" xmlns="http://www.w3.org/2000/svg">
<path d="M14.0007 0C11.277 6.1724e-05 8.61472 0.809019 6.35146 2.32427C4.0882 3.83953 2.32593 5.99281 1.28817 8.51102C0.25041 11.0292 -0.0160945 13.7989 0.522459 16.4688C1.06101 19.1387 2.38036 21.5885 4.31317 23.5075L9.24192 28.0588C10.5088 29.2988 12.2097 29.9954 13.9825 30.0001C15.7552 30.0047 17.4598 29.3171 18.7332 28.0838L23.7232 23.4725C25.6461 21.5495 26.9555 19.0996 27.4861 16.4324C28.0166 13.7652 27.7443 11.0006 26.7036 8.48816C25.6629 5.97573 23.9006 3.82831 21.6395 2.31743C19.3784 0.806557 16.7201 8.63238e-05 14.0007 0V0ZM21.9907 21.6713L17.0107 26.2725C16.1918 27.044 15.1081 27.4718 13.9831 27.4676C12.858 27.4634 11.7775 27.0276 10.9644 26.25L6.04567 21.705C4.73748 20.3968 3.77212 18.7862 3.23508 17.0158C2.69804 15.2453 2.60591 13.3698 2.96684 11.5553C3.32778 9.74079 4.13064 8.04329 5.30431 6.61317C6.47798 5.18305 7.98623 4.06445 9.69547 3.35646C11.4047 2.64847 13.2622 2.37293 15.1033 2.55427C16.9445 2.7356 18.7125 3.3682 20.2508 4.39603C21.7891 5.42387 23.0501 6.81521 23.9222 8.44682C24.7944 10.0784 25.2507 11.8999 25.2507 13.75C25.2562 15.22 24.971 16.6767 24.4115 18.0361C23.852 19.3955 23.0293 20.6309 21.9907 21.6713ZM19.8882 9.57875L16.1382 6.9775C15.5099 6.54337 14.7643 6.31083 14.0007 6.31083C13.237 6.31083 12.4914 6.54337 11.8632 6.9775L8.11317 9.57875C7.61556 9.92396 7.20896 10.3846 6.92814 10.9212C6.64733 11.4577 6.50066 12.0544 6.50067 12.66V16.875C6.50067 17.7038 6.82991 18.4987 7.41596 19.0847C8.00201 19.6708 8.79687 20 9.62567 20H18.3757C19.2045 20 19.9993 19.6708 20.5854 19.0847C21.1714 18.4987 21.5007 17.7038 21.5007 16.875V12.66C21.5007 12.0544 21.354 11.4577 21.0732 10.9212C20.7924 10.3846 20.3858 9.92396 19.8882 9.57875ZM19.0007 16.875C19.0007 17.0408 18.9348 17.1997 18.8176 17.3169C18.7004 17.4342 18.5414 17.5 18.3757 17.5H16.5007V15C16.5007 14.6685 16.369 14.3505 16.1346 14.1161C15.9001 13.8817 15.5822 13.75 15.2507 13.75H12.7507C12.4192 13.75 12.1012 13.8817 11.8668 14.1161C11.6324 14.3505 11.5007 14.6685 11.5007 15V17.5H9.62567C9.45991 17.5 9.30094 17.4342 9.18373 17.3169C9.06652 17.1997 9.00067 17.0408 9.00067 16.875V12.66C9.0006 12.4581 9.04946 12.2591 9.14307 12.0802C9.23667 11.9012 9.37224 11.7476 9.53817 11.6325L13.2882 9.03125C13.4978 8.8871 13.7463 8.80992 14.0007 8.80992C14.2551 8.80992 14.5035 8.8871 14.7132 9.03125L18.4632 11.6325C18.6291 11.7476 18.7647 11.9012 18.8583 12.0802C18.9519 12.2591 19.0007 12.4581 19.0007 12.66V16.875Z" fill="#8E89A9"/>
</svg>
