<svg xmlns="http://www.w3.org/2000/svg" xmlns:xlink="http://www.w3.org/1999/xlink" version="1.1" x="0px" y="0px" viewBox="0 0 1024 1280" style="enable-background:new 0 0 1024 1024;" xml:space="preserve"><g><g><g><path d="M918,232c0,18.8,0,37.6,0,56.3c0,45,0,90,0,135c0,54,0,107.9,0,161.9c0,46.7,0,93.3,0,140     c0,22.1,0.1,44.1,0,66.2c0,2-0.1,4.1-0.4,6.1c0.5-3.5,1-7.1,1.4-10.6c-0.5,3.1-1.3,6.1-2.4,9.1c1.3-3.2,2.7-6.4,4-9.6     c-1.4,3.3-3.1,6.2-5.2,9.1c2.1-2.7,4.2-5.4,6.3-8.1c-2.2,2.8-4.6,5.2-7.3,7.3c2.7-2.1,5.4-4.2,8.1-6.3c-2.8,2.1-5.8,3.8-9.1,5.2     c3.2-1.3,6.4-2.7,9.6-4c-3,1.1-5.9,1.9-9.1,2.4c3.5-0.5,7.1-1,10.6-1.4c-8.6,1.1-17.6,0.4-26.2,0.4c-19.6,0-39.2,0-58.8,0     c-29.3,0-58.5,0-87.8,0c-35.8,0-71.6,0-107.4,0c-39.3,0-78.6,0-117.8,0c-39.6,0-79.3,0-118.9,0c-36.9,0-73.9,0-110.8,0     c-31.1,0-62.2,0-93.4,0c-22.2,0-44.4,0-66.7,0c-10.2,0-20.5,0-30.7,0c-2.2,0-4.4-0.1-6.5-0.4c3.5,0.5,7.1,1,10.6,1.4     c-3.1-0.5-6.1-1.3-9.1-2.4c3.2,1.3,6.4,2.7,9.6,4c-3.3-1.4-6.2-3.1-9.1-5.2c2.7,2.1,5.4,4.2,8.1,6.3c-2.8-2.2-5.2-4.6-7.3-7.3     c2.1,2.7,4.2,5.4,6.3,8.1c-2.1-2.8-3.8-5.8-5.2-9.1c1.3,3.2,2.7,6.4,4,9.6c-1.1-3-1.9-5.9-2.4-9.1c0.5,3.5,1,7.1,1.4,10.6     c-0.8-6.4-0.4-13-0.4-19.4c0-13.5,0-27,0-40.5c0-44.7,0-89.4,0-134.1c0-54.6,0-109.2,0-163.7c0-46.8,0-93.5,0-140.3     c0-22.3-0.1-44.6,0-66.9c0-2,0.1-4.1,0.4-6.1c-0.5,3.5-1,7.1-1.4,10.6c0.5-3.1,1.3-6.1,2.4-9.1c-1.3,3.2-2.7,6.4-4,9.6     c1.4-3.3,3.1-6.2,5.2-9.1c-2.1,2.7-4.2,5.4-6.3,8.1c2.2-2.8,4.6-5.2,7.3-7.3c-2.7,2.1-5.4,4.2-8.1,6.3c2.8-2.1,5.8-3.8,9.1-5.2     c-3.2,1.3-6.4,2.7-9.6,4c3-1.1,5.9-1.9,9.1-2.4c-3.5,0.5-7.1,1-10.6,1.4c8.6-1.1,17.6-0.4,26.2-0.4c19.6,0,39.2,0,58.8,0     c29.3,0,58.5,0,87.8,0c35.8,0,71.6,0,107.4,0c39.3,0,78.6,0,117.8,0c39.6,0,79.3,0,118.9,0c36.9,0,73.9,0,110.8,0     c31.1,0,62.2,0,93.4,0c22.2,0,44.4,0,66.7,0c10.2,0,20.5,0,30.7,0c2.2,0,4.4,0.1,6.5,0.4c-3.5-0.5-7.1-1-10.6-1.4     c3.1,0.5,6.1,1.3,9.1,2.4c-3.2-1.3-6.4-2.7-9.6-4c3.3,1.4,6.2,3.1,9.1,5.2c-2.7-2.1-5.4-4.2-8.1-6.3c2.8,2.2,5.2,4.6,7.3,7.3     c-2.1-2.7-4.2-5.4-6.3-8.1c2.1,2.8,3.8,5.8,5.2,9.1c-1.3-3.2-2.7-6.4-4-9.6c1.1,3,1.9,5.9,2.4,9.1c-0.5-3.5-1-7.1-1.4-10.6     C917.8,228.3,918,230.1,918,232c0.2,10.4,4.3,20.9,11.7,28.3c6.9,6.9,18.3,12.2,28.3,11.7c21.4-1,40.4-17.6,40-40     c-0.4-20.9-8.4-41.6-23.6-56.3c-14.9-14.4-34.7-22.4-55.4-22.7c-1.5,0-3,0-4.6,0c-11.2,0-22.3,0-33.5,0c-20.1,0-40.2,0-60.3,0     c-27.1,0-54.3,0-81.4,0c-31.8,0-63.6,0-95.4,0c-34.5,0-68.9,0-103.4,0c-35.2,0-70.4,0-105.6,0c-33.5,0-67,0-100.4,0     c-30,0-59.9,0-89.9,0c-24.1,0-48.1,0-72.2,0c-16.2,0-32.4,0-48.6,0c-6.3,0-12.5-0.1-18.8,0c-6.9,0.1-14.1,1-20.8,2.8     c-12.1,3.2-21.6,9.2-31.2,16.9c-16.7,13.4-24.6,33.8-26.8,54.5c-0.4,3.4-0.3,6.9-0.3,10.3c0,14.9,0,29.8,0,44.7c0,26,0,52,0,78     c0,32.7,0,65.4,0,98.1c0,35.1,0,70.3,0,105.4c0,32.8,0,65.6,0,98.4c0,26.3,0,52.5,0,78.8c0,15,0,30.1,0,45.1     c0,2.9-0.1,5.8,0.1,8.7c1.5,20.7,9.4,41.4,25.4,55.3c15.2,13.1,33.2,20.6,53.5,20.9c6,0.1,12.1,0,18.1,0c16,0,32.1,0,48.1,0     c24.1,0,48.1,0,72.2,0c29.7,0,59.5,0,89.2,0c33.4,0,66.9,0,100.3,0c35.2,0,70.4,0,105.5,0c34.5,0,69,0,103.5,0c32,0,64,0,96,0     c27.1,0,54.2,0,81.3,0c20.3,0,40.5,0,60.8,0c11.4,0,22.7,0,34.1,0c1.6,0,3.3,0,4.9,0c20.3-0.3,38.3-7.8,53.5-20.9     c16-13.9,24-34.6,25.4-55.3c0.6-8.7,0.1-17.7,0.1-26.4c0-21.2,0-42.3,0-63.5c0-30,0-60,0-90.1c0-34.6,0-69.2,0-103.8     c0-34.4,0-68.8,0-103.2c0-30,0-60.1,0-90.1c0-21,0-41.9,0-62.9c0-7.6,0-15.2,0-22.8c0-20.9-18.4-41-40-40     C936.3,193,918,209.6,918,232z"/></g></g><g><g><path d="M918,343c0,35,0,69.9,0,104.9c0,5,0,10.1,0,15.1c13.3-13.3,26.7-26.7,40-40c-8,0-16,0-24,0     c-21.6,0-43.3,0-64.9,0c-32,0-64,0-95.9,0c-39,0-78,0-117,0c-42.7,0-85.4,0-128.2,0c-43.3,0-86.6,0-129.9,0     c-40.2,0-80.4,0-120.6,0c-34,0-68,0-101.9,0c-24.4,0-48.9,0-73.3,0c-11.6,0-23.2-0.2-34.8,0c-0.5,0-1,0-1.5,0     c13.3,13.3,26.7,26.7,40,40c0-35,0-69.9,0-104.9c0-5,0-10.1,0-15.1c-13.3,13.3-26.7,26.7-40,40c8,0,16,0,24,0     c21.6,0,43.3,0,64.9,0c32,0,64,0,95.9,0c39,0,78,0,117,0c42.7,0,85.4,0,128.2,0c43.3,0,86.6,0,129.9,0c40.2,0,80.4,0,120.6,0     c34,0,68,0,101.9,0c24.4,0,48.9,0,73.3,0c11.6,0,23.2,0.1,34.8,0c0.5,0,1,0,1.5,0c20.9,0,41-18.4,40-40c-1-21.7-17.6-40-40-40     c-8,0-16,0-24,0c-21.6,0-43.3,0-64.9,0c-32,0-64,0-95.9,0c-39,0-78,0-117,0c-42.7,0-85.4,0-128.2,0c-43.3,0-86.6,0-129.9,0     c-40.2,0-80.4,0-120.6,0c-34,0-68,0-101.9,0c-24.4,0-48.9,0-73.3,0c-11.6,0-23.2-0.1-34.8,0c-0.5,0-1,0-1.5,0     c-21.6,0-40,18.3-40,40c0,35,0,69.9,0,104.9c0,5,0,10.1,0,15.1c0,21.6,18.3,40,40,40c8,0,16,0,24,0c21.6,0,43.3,0,64.9,0     c32,0,64,0,95.9,0c39,0,78,0,117,0c42.7,0,85.4,0,128.2,0c43.3,0,86.6,0,129.9,0c40.2,0,80.4,0,120.6,0c34,0,68,0,101.9,0     c24.4,0,48.9,0,73.3,0c11.6,0,23.2,0.1,34.8,0c0.5,0,1,0,1.5,0c21.6,0,40-18.3,40-40c0-35,0-69.9,0-104.9c0-5,0-10.1,0-15.1     c0-20.9-18.4-41-40-40C936.3,304,918,320.6,918,343z"/></g></g><g><g><path d="M202,679c36.6,0,73.2,0,109.8,0c58,0,116,0,174,0c13.4,0,26.8,0,40.2,0c20.9,0,41-18.4,40-40     c-1-21.7-17.6-40-40-40c-36.6,0-73.2,0-109.8,0c-58,0-116,0-174,0c-13.4,0-26.8,0-40.2,0c-20.9,0-41,18.4-40,40     C163,660.7,179.6,679,202,679L202,679z"/></g></g></g><text x="0" y="1039" fill="#000000" font-size="5px" font-weight="bold" font-family="'Helvetica Neue', Helvetica, Arial-Unicode, Arial, Sans-serif">Created by shashank singh</text><text x="0" y="1044" fill="#000000" font-size="5px" font-weight="bold" font-family="'Helvetica Neue', Helvetica, Arial-Unicode, Arial, Sans-serif">from the Noun Project</text></svg>