<svg width="47" height="47" viewBox="0 0 47 47" fill="none" xmlns="http://www.w3.org/2000/svg">
<path d="M27.4168 13.7107C27.4168 14.4854 27.1871 15.2426 26.7567 15.8867C26.3263 16.5308 25.7146 17.0328 24.999 17.3293C24.2833 17.6257 23.4958 17.7033 22.736 17.5521C21.9763 17.401 21.2784 17.028 20.7306 16.4802C20.1829 15.9325 19.8098 15.2346 19.6587 14.4748C19.5076 13.7151 19.5851 12.9276 19.8816 12.2119C20.178 11.4962 20.68 10.8845 21.3241 10.4541C21.9682 10.0238 22.7255 9.79407 23.5001 9.79407C24.5389 9.79407 25.5351 10.2067 26.2696 10.9412C27.0041 11.6758 27.4168 12.672 27.4168 13.7107ZM33.2095 23.8627L27.221 29.7984C26.7351 30.2884 26.157 30.6772 25.52 30.9426C24.8831 31.2079 24.1999 31.3445 23.5099 31.3445C22.8199 31.3445 22.1367 31.2079 21.4998 30.9426C20.8629 30.6772 20.2848 30.2884 19.7989 29.7984L13.8142 23.8941C11.2444 21.2448 9.80524 17.7001 9.80086 14.0092C9.79647 10.3183 11.2272 6.77031 13.7907 4.1149C15.0506 2.81317 16.5594 1.77809 18.2274 1.07118C19.8954 0.364281 21.6885 0 23.5001 0C25.3117 0 27.1048 0.364281 28.7728 1.07118C30.4408 1.77809 31.9496 2.81317 33.2095 4.1149C35.7692 6.76459 37.1998 10.3047 37.1998 13.9888C37.1998 17.6729 35.7692 21.213 33.2095 23.8627ZM31.3335 13.7107C31.3335 12.1614 30.874 10.647 30.0133 9.35877C29.1526 8.07058 27.9292 7.06656 26.4978 6.47368C25.0665 5.88079 23.4914 5.72567 21.9719 6.02792C20.4524 6.33017 19.0566 7.07622 17.9611 8.17173C16.8656 9.26724 16.1196 10.663 15.8173 12.1825C15.515 13.702 15.6702 15.2771 16.2631 16.7084C16.8559 18.1398 17.86 19.3632 19.1482 20.2239C20.4363 21.0847 21.9508 21.5441 23.5001 21.5441C25.5777 21.5441 27.5701 20.7188 29.0391 19.2497C30.5082 17.7807 31.3335 15.7883 31.3335 13.7107ZM40.6414 18.0191C39.9267 21.2557 38.3235 24.2288 36.0119 26.6044L29.9842 32.5832C29.1361 33.4333 28.1289 34.108 27.0201 34.5687C25.9112 35.0293 24.7224 35.267 23.5217 35.2681C22.3216 35.2685 21.1331 35.0325 20.0243 34.5735C18.9154 34.1145 17.9079 33.4415 17.0592 32.593L11.0608 26.6729C8.7796 24.3311 7.1786 21.4128 6.42933 18.2306C5.15737 18.6968 3.99438 19.4186 3.01204 20.3514C2.05451 21.2618 1.29335 22.3584 0.775383 23.5739C0.257413 24.7893 -0.00641772 26.0979 0.000118542 27.4191V35.3993C0.00423417 37.5169 0.692961 39.5764 1.96353 41.2705C3.23409 42.9646 5.01837 44.2024 7.05012 44.7993L12.6705 46.5618C13.6146 46.8556 14.5978 47.0042 15.5865 47.0024C16.4834 47.0013 17.376 46.8787 18.24 46.6382L29.5592 43.2894C30.5674 43.0131 31.6314 43.0131 32.6397 43.2894L37.3142 44.8561C38.4663 45.1365 39.667 45.1517 40.8258 44.9006C41.9846 44.6495 43.0713 44.1386 44.004 43.4064C44.9366 42.6742 45.6909 41.7398 46.2099 40.6737C46.7289 39.6076 46.9991 38.4376 47.0001 37.2519V27.1684C46.9934 25.1784 46.3816 23.2374 45.2459 21.6033C44.1102 19.9692 42.5043 18.7191 40.6414 18.0191Z" fill="white"/>
</svg>
