<svg width="92" height="65" viewBox="0 0 92 65" fill="none" xmlns="http://www.w3.org/2000/svg">
<path d="M1.30537 43.534L18.6637 60.8923C21.0078 63.2357 24.1867 64.5521 27.5012 64.5521C30.8158 64.5521 33.9946 63.2357 36.3387 60.8923L89.947 7.28396C90.706 6.49811 91.126 5.4456 91.1165 4.35312C91.107 3.26063 90.6688 2.21558 89.8963 1.44304C89.1237 0.67051 88.0787 0.232307 86.9862 0.222814C85.8937 0.21332 84.8412 0.633297 84.0554 1.39229L30.447 55.0006C29.6657 55.7818 28.6061 56.2206 27.5012 56.2206C26.3964 56.2206 25.3367 55.7818 24.5554 55.0006L7.19704 37.6423C6.4112 36.8833 5.35869 36.4633 4.2662 36.4728C3.17372 36.4823 2.12866 36.9205 1.35613 37.693C0.583597 38.4656 0.145393 39.5106 0.1359 40.6031C0.126406 41.6956 0.546383 42.7481 1.30537 43.534Z" fill="white"/>
</svg>
