<svg width="58" height="58" viewBox="0 0 58 58" fill="none" xmlns="http://www.w3.org/2000/svg">
<path d="M56.9397 51.8259L45.7139 40.5954C54.1135 29.3706 51.8232 13.4616 40.5984 5.06199C29.3735 -3.33767 13.4646 -1.04735 5.06492 10.1775C-3.33474 21.4024 -1.04442 37.3113 10.1804 45.711C19.1972 52.4583 31.5815 52.4583 40.5984 45.711L51.8289 56.9415C53.2402 58.3528 55.5284 58.3528 56.9395 56.9415C58.3509 55.5302 58.3509 53.242 56.9395 51.8308L56.9397 51.8259ZM25.483 43.5434C15.5069 43.5434 7.4197 35.4562 7.4197 25.4801C7.4197 15.5039 15.5069 7.41677 25.483 7.41677C35.4591 7.41677 43.5463 15.5039 43.5463 25.4801C43.5357 35.4517 35.4547 43.5327 25.483 43.5434Z" fill="#CCC8E1"/>
</svg>
