<svg width="69" height="69" viewBox="0 0 69 69" fill="none" xmlns="http://www.w3.org/2000/svg">
<g filter="url(#filter0_d_1_2507)">
<path d="M54.6668 20.6667C51.9262 20.6667 49.2979 19.578 47.36 17.6401C45.4221 15.7022 44.3335 13.0739 44.3335 10.3333C44.3335 7.59276 45.4221 4.96444 47.36 3.02656C49.2979 1.08869 51.9262 0 54.6668 0C57.4074 0 60.0357 1.08869 61.9736 3.02656C63.9114 4.96444 65.0001 7.59276 65.0001 10.3333C65.0001 13.0739 63.9114 15.7022 61.9736 17.6401C60.0357 19.578 57.4074 20.6667 54.6668 20.6667ZM58.4178 62H35.5217C34.3635 62.0102 33.2231 61.7146 32.2157 61.1431C31.2083 60.5716 30.3696 59.7444 29.7841 58.745C29.2104 57.7819 28.9013 56.6843 28.8882 55.5634C28.875 54.4424 29.1582 53.3379 29.7092 52.3616L41.1689 31.8008C41.759 30.7818 42.6066 29.9358 43.6268 29.3477C44.6469 28.7595 45.8038 28.4499 46.9814 28.4499C48.1589 28.4499 49.3158 28.7595 50.336 29.3477C51.3562 29.9358 52.2038 30.7818 52.7939 31.8008L64.2251 52.3461C64.7771 53.3238 65.0611 54.43 65.0484 55.5527C65.0357 56.6754 64.7268 57.7749 64.1528 58.7398C63.5676 59.7393 62.7294 60.5668 61.7226 61.1392C60.7158 61.7115 59.5759 62.0084 58.4178 62ZM25.3305 61.3645C24.2987 59.6277 23.7428 57.6498 23.7187 55.6298C23.6947 53.6098 24.2034 51.6192 25.1935 49.8583L36.6558 29.295C37.5918 27.6131 38.9292 26.1888 40.5489 25.1488L36.4388 17.4504C35.6985 16.0793 34.6011 14.9339 33.2629 14.1357C31.9247 13.3374 30.3955 12.9159 28.8373 12.9159C27.2791 12.9159 25.7499 13.3374 24.4117 14.1357C23.0735 14.9339 21.9762 16.0793 21.2359 17.4504L4.04895 49.2254C3.33622 50.5434 2.97777 52.0238 3.00868 53.5218C3.03958 55.0198 3.45878 56.4842 4.22526 57.7717C4.99175 59.0591 6.07928 60.1256 7.38147 60.8667C8.68366 61.6079 10.1559 61.9984 11.6543 62H25.7335C25.5914 61.7933 25.457 61.5815 25.3305 61.3645Z" fill="url(#paint0_linear_1_2507)"/>
</g>
<defs>
<filter id="filter0_d_1_2507" x="0.00683594" y="0" width="68.042" height="69" filterUnits="userSpaceOnUse" color-interpolation-filters="sRGB">
<feFlood flood-opacity="0" result="BackgroundImageFix"/>
<feColorMatrix in="SourceAlpha" type="matrix" values="0 0 0 0 0 0 0 0 0 0 0 0 0 0 0 0 0 0 127 0" result="hardAlpha"/>
<feOffset dy="4"/>
<feGaussianBlur stdDeviation="1.5"/>
<feComposite in2="hardAlpha" operator="out"/>
<feColorMatrix type="matrix" values="0 0 0 0 0.705882 0 0 0 0 0.964706 0 0 0 0 1 0 0 0 0.46 0"/>
<feBlend mode="normal" in2="BackgroundImageFix" result="effect1_dropShadow_1_2507"/>
<feBlend mode="normal" in="SourceGraphic" in2="effect1_dropShadow_1_2507" result="shape"/>
</filter>
<linearGradient id="paint0_linear_1_2507" x1="2.99988" y1="31" x2="64.9999" y2="68.5" gradientUnits="userSpaceOnUse">
<stop stop-color="#55EBFF"/>
<stop offset="1" stop-color="#00D1FF"/>
</linearGradient>
</defs>
</svg>
