<svg width="49" height="59" viewBox="0 0 49 59" fill="none" xmlns="http://www.w3.org/2000/svg">
<path fill-rule="evenodd" clip-rule="evenodd" d="M39.6484 15.1166C39.6484 6.89519 32.9837 0.230469 24.7624 0.230469C16.541 0.230469 9.87627 6.89519 9.87627 15.1166C9.87627 23.3379 16.541 30.0026 24.7624 30.0026C32.9837 30.0026 39.6484 23.3379 39.6484 15.1166Z" fill="#3FAFFF"/>
<path fill-rule="evenodd" clip-rule="evenodd" d="M6.6313 37.0365C18.356 32.8491 31.1687 32.8491 42.8934 37.0365C46.434 38.301 48.7974 41.6547 48.7974 45.4143V49.4261C48.7974 54.6828 44.1415 58.7208 38.9376 57.9774L37.7424 57.8067C29.1328 56.5767 20.392 56.5767 11.7823 57.8067L10.5871 57.9774C5.38322 58.7208 0.727356 54.6828 0.727356 49.4261V45.4143C0.727356 41.6547 3.09076 38.301 6.6313 37.0365Z" fill="#3FAFFF"/>
</svg>
