<?xml version="1.0" encoding="utf-8"?>
<!-- Generator: Adobe Illustrator 24.1.1, SVG Export Plug-In . SVG Version: 6.00 Build 0)  -->
<svg version="1.1" id="Layer_1" xmlns="http://www.w3.org/2000/svg" xmlns:xlink="http://www.w3.org/1999/xlink" x="0px" y="0px"
	 viewBox="0 0 512 512" style="enable-background:new 0 0 512 512;" xml:space="preserve">
<g id="XMLID_1_">
	<path id="XMLID_6_" d="M467.8,60.4H45c-25.2,0-45,20.5-45,45v301.3c0,25.2,20.5,45,45,45h422c25.2,0,45-20.5,45-45V106.1
		C512.8,80.9,492.3,60.4,467.8,60.4z M482.8,407.5c0,8.7-7.1,15-15,15H45c-8.7,0-15-7.1-15-15V241.8h452.8
		C482.8,241.8,482.8,407.5,482.8,407.5z M30,151.1v-45c0-8.7,7.1-15,15-15h422c8.7,0,15,7.1,15,15v45H30z"/>
</g>
</svg>
