<svg width="33" height="59" viewBox="0 0 33 59" fill="none" xmlns="http://www.w3.org/2000/svg">
<path d="M12.6437 31.0833C12.4624 30.9026 12.3187 30.6878 12.2206 30.4514C12.1225 30.215 12.072 29.9615 12.072 29.7056C12.072 29.4496 12.1225 29.1962 12.2206 28.9598C12.3187 28.7233 12.4624 28.5086 12.6437 28.3278L30.492 10.4833C31.5872 9.38869 32.2026 7.90382 32.203 6.35539C32.2034 4.80695 31.5886 3.32179 30.494 2.22662C29.3993 1.13145 27.9144 0.51599 26.366 0.515625C24.8176 0.51526 23.3324 1.13002 22.2372 2.22468L4.3889 20.0731C1.83879 22.6302 0.406738 26.0942 0.406738 29.7056C0.406738 33.317 1.83879 36.781 4.3889 39.3381L22.2372 57.1865C23.3324 58.2811 24.8176 58.8959 26.366 58.8955C27.9144 58.8952 29.3993 58.2797 30.494 57.1845C31.5886 56.0894 32.2034 54.6042 32.203 53.0558C32.2026 51.5073 31.5872 50.0225 30.492 48.9278L12.6437 31.0833Z" fill="#302A4E"/>
</svg>
